<?xml version="1.0" encoding="UTF-8"?>
<svg width="420px" height="52px" viewBox="0 0 420 52" version="1.1" xmlns="http://www.w3.org/2000/svg" xmlns:xlink="http://www.w3.org/1999/xlink">
    <title>PClogo_银行</title>
    <defs>
        <polygon id="path-1" points="0 0 112 0 112 24 0 24"></polygon>
    </defs>
    <g id="控件" stroke="none" stroke-width="1" fill="none" fill-rule="evenodd">
        <g id="top" transform="translate(-359.000000, -59.000000)">
            <g id="PClogo_银行" transform="translate(359.000000, 59.000000)">
                <g id="编组">
                    <polygon id="Clip-14" points="0 52 420 52 420 0 0 0"></polygon>
                    <path d="M85.3743635,20.5837804 L75.0350864,20.5837804 L75.0350864,10.1798832 L84.5330385,10.1798832 C84.7934351,10.1798832 85.0042864,9.96727472 85.0042864,9.70470799 L85.0042864,7.69131497 C85.0042864,7.42874823 84.7934351,7.21613972 84.5330385,7.21613972 L61.426196,7.21613972 C61.1657994,7.21613972 60.9549482,7.42874823 60.9549482,7.69131497 L60.9549482,9.70470799 C60.9549482,9.96727472 61.1657994,10.1798832 61.426196,10.1798832 L70.9233918,10.1798832 L70.9233918,20.5837804 L60.5850602,20.5837804 C60.3246636,20.5837804 60.1138123,20.7961982 60.1138123,21.0587649 L60.1138123,23.1821805 C60.1138123,23.4447472 60.3246636,23.6573557 60.5850602,23.6573557 L70.9233918,23.6573557 L70.9233918,27.6713662 C70.9233918,27.9331702 71.134243,28.1465414 71.3946396,28.1465414 L74.5640276,28.1465414 C74.8249915,28.1465414 75.0350864,27.9331702 75.0350864,27.6713662 L75.0350864,23.6573557 L85.3743635,23.6573557 C85.6347601,23.6573557 85.8456114,23.4447472 85.8456114,23.1821805 L85.8456114,21.0587649 C85.8456114,20.7961982 85.6347601,20.5837804 85.3743635,20.5837804 L85.3743635,20.5837804 Z M66.1538033,18.938591 L69.3400215,18.938591 C69.5858571,18.938591 69.7388425,18.7389487 69.6147901,18.4973568 L66.4408636,12.2647814 C66.3175676,12.0214733 66.0236996,11.8243099 65.6430326,11.8243099 L62.4547343,11.8243099 C62.2096551,11.8243099 62.0581826,12.0214733 62.182235,12.2647814 L65.3538922,18.4973568 C65.4769991,18.7389487 65.7710562,18.938591 66.1538033,18.938591 L66.1538033,18.938591 Z M51.5925838,19.1712209 L48.7917602,19.1712209 L48.7917602,20.26973 L46.0160874,20.26973 L46.0160874,17.8078569 L50.7947528,17.8078569 L50.7947528,15.4796508 L46.0160874,15.4796508 L46.0160874,13.7755412 L51.5925838,13.7755412 L51.5925838,11.2444512 L36.8051956,11.2444512 L36.8051956,13.7755412 L42.3809356,13.7755412 L42.3809356,15.4796508 L37.6022702,15.4796508 L37.6022702,17.8078569 L42.3809356,17.8078569 L42.3809356,20.26973 L36.8051956,20.26973 L36.8051956,22.8006292 L51.5925838,22.8006292 L51.5925838,19.1712209 Z M24.6756681,9.05296281 L16.3758808,9.05296281 L16.3758808,6.55524189 C16.3758808,6.29343787 16.1642731,6.08006665 15.9046329,6.08006665 L12.5381983,6.08006665 C12.2778017,6.08006665 12.0669504,6.29343787 12.0669504,6.55524189 L12.0669504,9.05296281 L3.76735219,9.05296281 C2.23938952,9.05296281 1,10.3019186 1,11.8433779 L1,20.9544628 C1,22.4949688 2.23938952,23.7439246 3.76735219,23.7439246 L12.0669504,23.7439246 L12.0669504,27.6713662 C12.0669504,27.9339329 12.2778017,28.1465414 12.5381983,28.1465414 L15.9046329,28.1465414 C16.1642731,28.1465414 16.3758808,27.9339329 16.3758808,27.6713662 L16.3758808,23.7439246 L24.6756681,23.7439246 C26.2034417,23.7439246 27.4428312,22.4949688 27.4428312,20.9544628 L27.4428312,11.8433779 C27.4428312,10.3019186 26.2034417,9.05296281 24.6756681,9.05296281 L24.6756681,9.05296281 Z M4.9091639,20.6550948 L12.0669504,20.6550948 L12.0669504,12.142746 L4.9091639,12.142746 L4.9091639,20.6550948 Z M16.3756917,20.6550948 L23.5334782,20.6550948 L23.5334782,12.142746 L16.3756917,12.142746 L16.3756917,20.6550948 Z M88.8845173,12.1450341 L91.0877714,12.1450341 C91.348168,12.1450341 91.5590193,11.9316629 91.5590193,11.6698589 L91.5590193,10.2788463 L110.956014,10.2788463 L110.956014,11.6698589 C110.956014,11.9316629 111.167054,12.1450341 111.427262,12.1450341 L113.630516,12.1450341 C113.890912,12.1450341 114.101764,11.9316629 114.101764,11.6698589 L114.101764,10.0769159 C114.101764,8.72289525 113.013847,7.62743708 111.672341,7.62743708 L103.313364,7.62743708 L103.313364,6.47534686 C103.313364,6.21278012 103.102513,6.00017161 102.842305,6.00017161 L99.6729171,6.00017161 C99.4125205,6.00017161 99.2016692,6.21278012 99.2016692,6.47534686 L99.2016692,7.62743708 L90.8426922,7.62743708 C89.5019428,7.62743708 88.4132694,8.72289525 88.4132694,10.0769159 L88.4132694,11.6698589 C88.4132694,11.9316629 88.6243098,12.1450341 88.8845173,12.1450341 L88.8845173,12.1450341 Z M54.4147762,6.7968338 L33.9830031,6.7968338 C32.454284,6.7968338 31.2156509,8.04655232 31.2156509,9.58724894 L31.2156509,24.7373688 C31.2156509,26.2788281 32.454284,27.5270212 33.9830031,27.5270212 L54.4147762,27.5270212 C55.9425498,27.5270212 57.1821284,26.2788281 57.1821284,24.7373688 L57.1821284,9.58724894 C57.1821284,8.04655232 55.9425498,6.7968338 54.4147762,6.7968338 L54.4147762,6.7968338 Z M34.9058321,24.5638497 L53.4919473,24.5638497 L53.4919473,9.53805343 L34.9058321,9.53805343 L34.9058321,24.5638497 Z M80.3154455,11.8243099 C79.9347785,11.8243099 79.6403431,12.0214733 79.5176145,12.2647814 L76.3438771,18.4973568 C76.2190683,18.7389487 76.372621,18.938591 76.6178893,18.938591 L79.8046748,18.938591 C80.187611,18.938591 80.481479,18.7389487 80.604775,18.4973568 L83.7764322,12.2647814 C83.9004846,12.0214733 83.748823,11.8243099 83.5037438,11.8243099 L80.3154455,11.8243099 Z M221.314063,8.14875695 C221.125337,7.81392238 220.826174,7.59616551 220.457799,7.59616551 L217.508339,7.59616551 C217.139208,7.59616551 216.840045,7.81392238 216.652075,8.14875695 L207.371026,26.5842979 C207.060327,27.1799831 207.326208,27.5354111 207.873476,27.5354111 L210.815182,27.5354111 C211.243692,27.5354111 211.403675,27.4217657 211.620766,27.0087522 L218.983164,12.1787845 L226.345561,27.0087522 C226.561707,27.4217657 226.72169,27.5354111 227.151145,27.5354111 L230.091906,27.5354111 C230.64012,27.5354111 230.905811,27.1799831 230.594356,26.5842979 L221.314063,8.14875695 Z M113.803357,14.2552927 L109.739695,14.2552927 L109.739695,12.5067546 C109.739695,12.23637 109.521847,12.016897 109.253697,12.016897 L106.486534,12.016897 C106.218573,12.016897 106.000725,12.23637 106.000725,12.5067546 L106.000725,14.2552927 L96.5173338,14.2552927 L96.5173338,12.5067546 C96.5173338,12.23637 96.2994857,12.016897 96.0315249,12.016897 L93.2643618,12.016897 C92.9956446,12.016897 92.7785529,12.23637 92.7785529,12.5067546 L92.7785529,14.2552927 L88.7126215,14.2552927 C88.4522249,14.2552927 88.2413736,14.4679012 88.2413736,14.730468 L88.2413736,16.7938192 C88.2413736,17.0556233 88.4522249,17.2689945 88.7126215,17.2689945 L92.77704,17.2689945 L92.77704,18.5539888 C92.77704,20.0493036 93.4593283,21.4672021 95.2819155,22.3593951 C95.9738481,22.7031916 96.8278431,23.119256 97.7393257,23.5568672 C96.1190802,24.2223414 94.6886953,24.5262857 93.1768065,24.5262857 L89.3353419,24.525523 C89.0673812,24.525523 88.8497221,24.744996 88.8497221,25.01519 L88.8497221,27.0478417 C88.8497221,27.318989 89.0673812,27.53789 89.3353419,27.53789 L93.1128893,27.5394154 C94.6255345,27.5394154 96.4730834,27.2167844 98.0377323,26.6289171 C98.6748247,26.3884693 99.8777171,25.8543738 101.258746,25.217311 C102.640531,25.8543738 103.843234,26.3884693 104.480516,26.6289171 C106.045164,27.2167844 107.892713,27.5394154 109.405359,27.5394154 L113.182906,27.53789 C113.450867,27.53789 113.668526,27.318989 113.668526,27.0478417 L113.668526,25.01519 C113.668526,24.744996 113.450867,24.525523 113.182906,24.525523 L109.341252,24.5262857 C107.829363,24.5262857 106.398979,24.2223414 104.778922,23.5568672 C105.690216,23.119256 106.5444,22.7031916 107.236332,22.3593951 C109.058163,21.4672021 109.741019,20.0493036 109.741019,18.5539888 L109.740451,17.2689945 L113.803357,17.2689945 C114.062997,17.2689945 114.274605,17.0556233 114.274605,16.7938192 L114.274605,14.730468 C114.274605,14.4679012 114.062997,14.2552927 113.803357,14.2552927 L113.803357,14.2552927 Z M105.999968,18.1815903 C105.999968,19.0253505 105.843957,19.6894899 104.78365,20.2260642 C103.930978,20.6566202 102.524799,21.3299123 101.258746,21.9286483 C99.9926925,21.3299123 98.586513,20.6566202 97.7345981,20.2260642 C96.6742904,19.6894899 96.5173338,19.0253505 96.5173338,18.1815903 L96.5173338,17.2689945 L105.999968,17.2689945 L105.999968,18.1815903 Z M195.532151,7.3526668 L188.64781,7.3526668 C184.919619,7.3526668 181.897354,10.0624242 181.897354,13.4061935 L181.897354,21.7467394 C181.897354,25.0912714 184.919619,27.800266 188.64781,27.800266 L195.532151,27.800266 C199.26091,27.800266 202.282607,25.0912714 202.282607,21.7467394 L202.282607,16.398539 L191.842159,16.398539 L191.842159,19.2080222 C191.842159,19.4705889 192.053011,19.6831974 192.313407,19.6831974 L198.029274,19.6831974 L198.029274,23.5513375 C198.029274,23.8139042 197.818233,24.0267034 197.558026,24.0267034 L186.619099,24.0267034 C186.358702,24.0267034 186.147662,23.8139042 186.147662,23.5513375 L186.147662,11.6038835 C186.147662,11.3420795 186.358702,11.1287083 186.619099,11.1287083 L197.558026,11.1287083 C197.818233,11.1287083 198.028517,11.3420795 198.028517,11.6038835 L198.028517,13.8930002 C198.028517,14.1546136 198.239369,14.3672221 198.499765,14.3672221 L201.811359,14.3672221 C202.071,14.3672221 202.282607,14.1546136 202.282607,13.8930002 L202.282607,13.4061935 C202.282607,10.0624242 199.26091,7.3526668 195.532151,7.3526668 L195.532151,7.3526668 Z M252.528941,7.62438619 L249.541472,7.62438619 C249.281075,7.62438619 249.070224,7.8369947 249.070224,8.09956144 L249.070224,21.8249183 C247.514085,20.0464434 237.198635,8.25630062 236.938994,7.97828878 C236.657229,7.67968347 236.286585,7.62438619 236.044531,7.62438619 L236.043775,7.62438619 L233.089966,7.62438619 C232.828813,7.62438619 232.618718,7.8369947 232.618718,8.09956144 L232.618718,27.0627147 C232.618718,27.3250908 232.828813,27.53789 233.089966,27.53789 L236.07649,27.53789 C236.336886,27.53789 236.547738,27.3250908 236.547738,27.0627147 L236.547738,13.2227591 C237.673665,14.5094695 248.51369,26.8991111 248.780894,27.1837967 C249.061147,27.4841181 249.430278,27.5369366 249.675547,27.5369366 L249.675547,27.53789 L252.528941,27.53789 C252.789149,27.53789 253,27.3250908 253,27.0627147 L253,8.09956144 C253,7.8369947 252.789149,7.62438619 252.528941,7.62438619 L252.528941,7.62438619 Z M140.717436,7.62514891 L128.561812,7.62514891 C128.302172,7.62514891 128.090564,7.8369947 128.090564,8.09956144 L128.090564,27.0627147 C128.090564,27.3250908 128.302172,27.53789 128.561812,27.53789 L131.928247,27.53789 C132.188644,27.53789 132.399495,27.3250908 132.399495,27.0627147 L132.399495,21.4689182 L140.717436,21.4689182 C144.446195,21.4689182 147.467703,19.2471116 147.467703,15.9025796 L147.467703,13.6826799 C147.467703,10.3364317 144.446195,7.62514891 140.717436,7.62514891 L140.717436,7.62514891 Z M142.964752,17.4856073 C142.964752,17.748174 142.7539,17.9605918 142.493504,17.9605918 L132.399495,17.9605918 L132.399495,11.1302337 L142.493504,11.1302337 C142.7539,11.1302337 142.964752,11.3436049 142.964752,11.605409 L142.964752,17.4856073 Z M154.161049,7.62438619 L150.829032,7.62438619 C150.569392,7.62438619 150.357784,7.8369947 150.357784,8.09956144 L150.357784,27.0627147 C150.357784,27.3250908 150.569392,27.53789 150.829032,27.53789 L154.161049,27.53789 C154.421446,27.53789 154.632297,27.3250908 154.632297,27.0627147 L154.632297,8.09956144 C154.632297,7.8369947 154.421446,7.62438619 154.161049,7.62438619 L154.161049,7.62438619 Z M178.262202,7.62438619 L175.274733,7.62438619 C175.014525,7.62438619 174.803674,7.8369947 174.803674,8.09956144 L174.803674,21.8249183 C173.247535,20.0464434 162.931328,8.25630062 162.671688,7.97828878 C162.390868,7.67968347 162.019278,7.62438619 161.777792,7.62438619 L161.777036,7.62438619 L158.823227,7.62438619 C158.562073,7.62438619 158.351979,7.8369947 158.351979,8.09956144 L158.351979,27.0627147 C158.351979,27.3250908 158.562073,27.53789 158.823227,27.53789 L161.809751,27.53789 C162.070147,27.53789 162.280998,27.3250908 162.280998,27.0627147 L162.280998,13.2227591 C163.406358,14.5094695 174.24714,26.8991111 174.514344,27.1837967 C174.794408,27.4841181 175.163539,27.5369366 175.408051,27.5369366 L175.408807,27.53789 L178.262202,27.53789 C178.521842,27.53789 178.73345,27.3250908 178.73345,27.0627147 L178.73345,8.09956144 C178.73345,7.8369947 178.521842,7.62438619 178.262202,7.62438619 L178.262202,7.62438619 Z" id="Fill-1" fill="#F05A23"></path>
                    <path d="M221.516878,21.5820488 L216.448883,21.5820488 C216.188486,21.5820488 215.977635,21.7946573 215.977635,22.0572241 L215.977635,27.0560981 C215.977635,27.3186649 216.188486,27.5312734 216.448883,27.5312734 L221.516878,27.5312734 C221.777274,27.5312734 221.988125,27.3186649 221.988125,27.0560981 L221.988125,22.0572241 C221.988125,21.7946573 221.777274,21.5820488 221.516878,21.5820488" id="Fill-3" fill="#006441"></path>
                    <path d="M58.5739928,42.4660199 C58.5739928,42.8736943 58.2468423,43.2035712 57.8417809,43.2035712 C57.437476,43.2035712 57.1101364,42.8736943 57.1101364,42.4660199 C57.1101364,42.0583454 57.437476,41.7282779 57.8417809,41.7282779 C58.2468423,41.7282779 58.5739928,42.0583454 58.5739928,42.4660199" id="Fill-5" fill="#F05A23"></path>
                    <path d="M32.221837,37.3720154 C32.2806485,37.1332837 32.4442237,37.0286002 32.7110498,37.0581557 C32.977876,37.1475847 33.0958771,37.3127138 33.0669441,37.5512549 L32.8445575,38.5380253 L37.2472836,38.5380253 C37.5141097,38.5677714 37.6474283,38.7329005 37.6474283,39.0313151 C37.6173607,39.300365 37.4696702,39.4349853 37.2028441,39.4349853 L32.6219817,39.4349853 C32.4733458,40.0329586 32.3551556,40.4515018 32.2662766,40.6902335 L37.958883,40.6902335 C38.2257092,40.7207424 38.3733996,40.8696637 38.4032781,41.1387135 C38.4032781,41.4077634 38.2701487,41.5423837 38.0033225,41.5423837 L32.0438899,41.5423837 L31.5100485,42.8878237 L36.0909108,42.8878237 C36.5356841,42.8878237 36.8166931,42.9774434 36.9360179,43.1568736 C37.054019,43.3363037 37.0392689,43.6352904 36.8913893,44.0538336 C36.5052383,45.040032 36.0018427,45.8626267 35.3791223,46.5200923 C36.0612215,46.6695856 36.5801236,46.833952 36.9360179,47.0133821 C37.231777,47.1623034 37.3505345,47.3720517 37.2917231,47.6411016 C37.142898,47.9103421 36.9205114,47.9999619 36.6245631,47.9103421 C34.6378335,47.1623034 32.5331027,46.6390767 30.3092362,46.3404714 C29.9830313,46.2807885 29.8347736,46.1162314 29.864463,45.8471816 C29.953342,45.5781317 30.1604112,45.4437021 30.4871834,45.4437021 C31.5546771,45.5935768 32.8587403,45.8626267 34.4005076,46.2508517 C35.023228,45.5935768 35.5124408,44.9359205 35.8683351,44.2780736 C36.0165929,43.9790869 35.9420858,43.8147205 35.6459484,43.7847837 L31.2432223,43.7847837 C30.7986381,43.8147205 30.5465621,43.7548469 30.4871834,43.6053536 C30.3684259,43.4558602 30.4130545,43.1723187 30.6205019,42.7532034 C30.7687597,42.3945338 30.8720106,42.125484 30.9319567,41.9458631 C30.9911463,41.8268787 31.0499578,41.6922584 31.1097147,41.5423837 L28.0414976,41.5423837 C27.7744823,41.5423837 27.6409747,41.4077634 27.6409747,41.1387135 C27.6702859,40.8696637 27.8191109,40.7207424 28.0859371,40.6902335 L31.37673,40.6902335 L31.7324351,39.4349853 L28.7975365,39.4349853 C28.5004537,39.4349853 28.3527632,39.285492 28.3527632,38.9865053 C28.3816962,38.7174554 28.5450823,38.5677714 28.841976,38.5380253 L31.9550109,38.5380253 L32.221837,37.3720154 Z" id="Fill-7" fill="#F05A23"></path>
                    <path d="M49.5928438,39.4350616 C49.6819119,39.1366469 49.8740418,39.0165184 50.1711247,39.0762013 C50.4381399,39.1660117 50.5413909,39.3753786 50.4823903,39.7041114 C49.9778601,41.7371445 49.3551397,43.4708096 48.6144182,44.9052973 C48.4069707,45.2347928 48.1543274,45.353968 47.8581901,45.2641576 C47.5913639,45.1152363 47.5469244,44.8604874 47.7248716,44.5018178 C48.376525,43.2465696 48.9992454,41.5579051 49.5928438,39.4350616 M41.5436196,39.614301 C42.1062049,40.7505648 42.728358,42.43942 43.4110245,44.681248 C43.4704032,45.0105528 43.3813351,45.2498565 43.1440092,45.3987778 C42.8174261,45.4883976 42.6103569,45.3842861 42.5212888,45.0849181 C42.0173259,43.2316965 41.410112,41.54246 40.6985125,40.0175898 C40.5496875,39.6892384 40.6094444,39.4499346 40.8762706,39.3004413 C41.1430967,39.2108216 41.3654834,39.3153144 41.5436196,39.614301 M47.4580454,37.6859514 L47.4580454,46.7442178 L50.5714585,46.7442178 C50.808217,46.7442178 50.9415356,46.8937112 50.9712249,47.1928885 C50.9415356,47.4911125 50.808217,47.6554789 50.5714585,47.6859877 L40.6094444,47.6859877 C40.3426183,47.6554789 40.2234826,47.4762394 40.2535501,47.147888 C40.2828613,46.8788381 40.4316864,46.7442178 40.6985125,46.7442178 L43.8557978,46.7442178 L43.8557978,37.7307613 C43.8557978,37.4615207 44.0040555,37.3270911 44.3005711,37.3270911 C44.5675863,37.3270911 44.7150877,37.4615207 44.7453444,37.7307613 L44.7453444,46.7442178 L46.5684988,46.7442178 L46.5684988,37.6859514 C46.5684988,37.4169015 46.7167566,37.2679802 47.013083,37.2374714 C47.2800983,37.2679802 47.428356,37.4169015 47.4580454,37.6859514" id="Fill-9" fill="#F05A23"></path>
                    <path d="M73.927824,41.9459204 L73.927824,47.4169188 C73.8983237,47.7153334 73.750066,47.8798905 73.4830507,47.9102087 C73.1865352,47.8798905 73.0382774,47.7309692 73.0382774,47.4619193 L73.0382774,41.9907302 C73.0382774,41.6923156 73.171785,41.5128854 73.4386112,41.4526305 C73.7347485,41.4829486 73.8983237,41.6476964 73.927824,41.9459204 M70.459084,41.8563006 C70.5178954,43.4707905 70.4290164,44.696674 70.1922578,45.5331884 C69.9842431,46.3704654 69.5986595,47.0725502 69.0358851,47.6411588 C68.7979919,47.8205889 68.5756052,47.8350806 68.3687252,47.6861593 C68.190778,47.4462836 68.190778,47.2220435 68.3687252,47.0132486 C68.9314995,46.4751489 69.2873938,45.8777476 69.4362189,45.2193286 C69.5837202,44.6516734 69.6283488,43.5310455 69.5695374,41.8563006 C69.5695374,41.5872508 69.7172279,41.4526305 70.0144998,41.4526305 C70.281326,41.4526305 70.4290164,41.5872508 70.459084,41.8563006 M71.7485861,37.1030227 C71.9855338,37.1030227 72.326678,37.4615017 72.7714513,38.1792222 C73.6314976,39.614282 74.6242951,40.7505457 75.7515458,41.5872508 C75.9883043,41.8269359 76.0327439,42.0805406 75.8844861,42.3495905 C75.6768496,42.5589574 75.4542738,42.5589574 75.2177044,42.3495905 C74.0310749,41.3628201 73.0087771,40.2122553 72.1487308,38.8967521 C71.911594,38.5380825 71.7780864,38.3586523 71.7485861,38.3586523 C71.6892074,38.3586523 71.5556998,38.5230187 71.3486306,38.8519422 C70.4290164,40.3169388 69.4207123,41.4232657 68.3240965,42.170351 C68.0572704,42.3495905 67.8496339,42.3202257 67.7013761,42.0805406 C67.5828077,41.8114908 67.6421234,41.5872508 67.8795124,41.4078206 C68.9173167,40.6902907 69.8656747,39.6293457 70.7259101,38.2240321 C71.1406158,37.4771374 71.4815709,37.1030227 71.7485861,37.1030227 M67.4789895,37.5961219 C67.5383682,37.2977073 67.7163153,37.1632777 68.0128309,37.1924518 C68.3087791,37.312771 68.4279148,37.5219473 68.3687252,37.8203619 C68.1310211,38.9266889 67.8195663,39.9880153 67.43455,41.0041505 L67.43455,47.4169188 C67.4050497,47.7153334 67.2715421,47.8653988 67.0344053,47.8653988 C66.7681464,47.8653988 66.6346388,47.7153334 66.6346388,47.4169188 L66.6346388,42.5738305 C66.4566917,42.9626276 66.3078666,43.2465505 66.1898655,43.4259806 C65.9519723,43.6950305 65.7148355,43.7547134 65.478077,43.6054108 C65.2700622,43.4259806 65.2558794,43.1723759 65.4336375,42.8428804 C66.4122522,41.348519 67.0935949,39.5994089 67.4789895,37.5961219" id="Fill-11" fill="#F05A23"></path>
                    <path d="M82.1376544,46.9684197 L86.407062,46.9684197 L86.407062,46.0714597 L82.1376544,46.0714597 L82.1376544,46.9684197 Z M82.1376544,45.2643101 L86.407062,45.2643101 L86.407062,44.2781117 L82.1376544,44.2781117 L82.1376544,45.2643101 Z M82.1376544,43.4707714 L86.407062,43.4707714 L86.407062,42.484001 L82.1376544,42.484001 L82.1376544,43.4707714 Z M86.407062,41.6768514 L86.407062,40.9145117 C86.407062,40.7655904 86.3179939,40.6902717 86.1402358,40.6902717 L82.4044806,40.6902717 C82.1667765,40.6902717 82.0777084,40.7798914 82.1376544,40.9593215 L82.1376544,41.6768514 L86.407062,41.6768514 Z M83.7834291,37.551293 C83.7834291,37.3426888 83.9309304,37.2231322 84.227635,37.1924327 C84.4944612,37.2231322 84.642719,37.3426888 84.6724083,37.551293 L84.6724083,38.1792031 L87.6967533,38.1792031 C87.9335118,38.2091399 88.0668304,38.3586333 88.097087,38.6276831 C88.0668304,38.9266698 87.9335118,39.0761631 87.6967533,39.0761631 L84.6724083,39.0761631 L84.6724083,39.8385029 L86.407062,39.8385029 C87.0297824,39.8087568 87.3255415,40.0478698 87.2966086,40.5556514 L87.2966086,46.9684197 L88.2305947,46.9684197 C88.4671641,46.9684197 88.6008609,47.117341 88.6303611,47.4170904 C88.6008609,47.6861403 88.4671641,47.8350616 88.2305947,47.8653797 L80.2696822,47.8653797 C79.9729776,47.8350616 79.8099697,47.6861403 79.7802803,47.4170904 C79.8099697,47.117341 79.9729776,46.9684197 80.2696822,46.9684197 L81.2481078,46.9684197 L81.2481078,40.5556514 C81.1881618,40.0478698 81.4408051,39.8087568 82.0043359,39.8385029 L83.7834291,39.8385029 L83.7834291,39.0761631 L80.8922136,39.0761631 C80.595698,39.0761631 80.4474403,38.9266698 80.4474403,38.6276831 C80.4474403,38.3586333 80.595698,38.2091399 80.8922136,38.1792031 L83.7834291,38.1792031 L83.7834291,37.551293 Z M79.380703,37.7307231 C79.4393253,37.4017997 79.6172724,37.2528784 79.913788,37.2822431 C80.2095471,37.3720535 80.3432438,37.5812298 80.3139326,37.9101533 C80.1953642,38.5678095 80.002667,39.2107834 79.7358408,39.8385029 L79.7358408,47.55152 C79.7061514,47.8499346 79.5578937,48 79.2916348,48 C78.994552,48 78.8466724,47.8499346 78.8466724,47.55152 L78.8466724,41.5424218 C78.7277258,41.7216613 78.5645288,41.9310282 78.3576487,42.170332 C78.1199446,42.4393818 77.8684359,42.484001 77.6014207,42.3047616 C77.3939733,42.0959667 77.3939733,41.8412178 77.6014207,41.5424218 C78.5200893,40.465841 79.1136877,39.1957197 79.380703,37.7307231 L79.380703,37.7307231 Z" id="Fill-13" fill="#F05A23"></path>
                </g>
                <g id="银行logo" transform="translate(308.000000, 5.000000)">
                    <mask id="mask-2" fill="white">
                        <use xlink:href="#path-1"></use>
                    </mask>
                    <g id="Clip-2"></g>
                    <path d="M21.0477779,6.95070819 C20.9237921,7.00680424 20.8169078,7.14057175 20.7228497,7.35201071 L17.7728441,13.134219 C17.6958874,13.2636714 17.6574091,13.3542881 17.644583,13.4060691 C17.6360322,13.4492199 17.6317569,13.4966858 17.6317569,13.5312064 C17.6317569,13.6865493 17.7471919,13.7599057 17.9695111,13.7599057 L20.8639369,13.7599057 C21.1632129,13.7599057 21.372706,13.7340152 21.488141,13.6736041 C21.5993006,13.617508 21.7019095,13.4837405 21.800243,13.2723016 L24.7459733,7.49440837 C24.8229299,7.32180514 24.8614083,7.20098288 24.8614083,7.12331142 C24.8614083,6.95070819 24.7459733,6.86440658 24.5193786,6.86440658 L21.6591558,6.86440658 C21.372706,6.86440658 21.1674882,6.89461214 21.0477779,6.95070819 L21.0477779,6.95070819 Z M7.61028857,6.95070819 C7.4905782,6.89461214 7.28536042,6.86440658 7.00318597,6.86440658 L4.13868778,6.86440658 C4.0061513,6.86440658 3.91636852,6.89461214 3.86933944,6.95070819 C3.82231037,7.00680424 3.79665815,7.06721537 3.79665815,7.12331142 C3.79665815,7.2182432 3.83513648,7.34338055 3.91209315,7.49440837 L6.86209875,13.2723016 C6.9561569,13.4837405 7.05876579,13.617508 7.16992542,13.6736041 C7.28536042,13.7340152 7.49485357,13.7599057 7.7941295,13.7599057 L10.6885553,13.7599057 C10.9108746,13.7599057 11.0263096,13.6865493 11.0263096,13.5312064 C11.0263096,13.4578501 10.9792805,13.3240825 10.8852223,13.134219 L7.9394921,7.35201071 C7.84115858,7.14057175 7.73427432,7.00680424 7.61028857,6.95070819 L7.61028857,6.95070819 Z M12.3302975,22.2865054 C12.3302975,22.4375332 12.3773266,22.5626706 12.4713848,22.6576023 C12.5697183,22.7568492 12.6894287,22.8 12.843342,22.8 L15.7591446,22.8 C15.913058,22.8 16.0413191,22.7568492 16.143928,22.6576023 C16.2465369,22.5626706 16.2978413,22.4375332 16.2978413,22.2865054 L16.2978413,18.3943025 L26.3919909,18.3943025 C26.7468466,18.3943025 26.9264122,18.2130691 26.9264122,17.8549174 L26.9264122,15.9908025 C26.9264122,15.8397747 26.8751078,15.7146373 26.7724989,15.6067603 C26.6656146,15.5031984 26.5416289,15.4471023 26.3919909,15.4471023 L16.2978413,15.4471023 L16.2978413,5.17720998 L25.5112646,5.17720998 C25.6651779,5.17720998 25.7848883,5.12542901 25.8789464,5.02186707 C25.9730046,4.91399005 26.024309,4.78885271 26.024309,4.6335098 L26.024309,2.86001159 C26.024309,2.70898376 25.9730046,2.58384642 25.8789464,2.48891464 C25.7848883,2.39398286 25.6651779,2.34651697 25.5112646,2.34651697 L3.09122203,2.34651697 C2.93730869,2.34651697 2.81759832,2.39398286 2.7192648,2.48891464 C2.62520665,2.58384642 2.57817757,2.70898376 2.57817757,2.86001159 L2.57817757,4.6335098 C2.57817757,4.78885271 2.62520665,4.91399005 2.7192648,5.02186707 C2.81759832,5.12542901 2.93730869,5.17720998 3.09122203,5.17720998 L12.3302975,5.17720998 L12.3302975,15.4471023 L2.32593072,15.4471023 C2.17201738,15.4471023 2.04375627,15.5031984 1.94114738,15.6067603 C1.83853849,15.7146373 1.78723404,15.8397747 1.78723404,15.9908025 L1.78723404,17.8549174 C1.78723404,18.2130691 1.9667996,18.3943025 2.32593072,18.3943025 L12.3302975,18.3943025 L12.3302975,22.2865054 Z M31.355696,2.77370997 C31.0179417,2.77370997 30.6972889,2.8341211 30.4065637,2.95925845 C30.1158385,3.08439579 29.8593163,3.25699902 29.6412724,3.47275306 C29.4232285,3.69713726 29.2479383,3.95172703 29.1154019,4.24946761 C28.9828654,4.5428931 28.9187348,4.86220908 28.9187348,5.20741555 L28.9187348,6.66591286 C28.9187348,6.81694069 28.9700393,6.94207803 29.0726482,7.04132489 C29.1795324,7.13194159 29.3077935,7.17940748 29.4574315,7.17940748 L31.355696,7.17940748 C31.5053339,7.17940748 31.6293197,7.13194159 31.7276532,7.04132489 C31.8217113,6.94207803 31.8687404,6.81694069 31.8687404,6.66591286 L31.8687404,5.3757037 L51.0010231,5.3757037 L51.0010231,6.66591286 C51.0010231,6.81694069 51.0480522,6.94207803 51.1421103,7.04132489 C51.2361685,7.13194159 51.3601542,7.17940748 51.5097922,7.17940748 L53.4379843,7.17940748 C53.5876222,7.17940748 53.711608,7.13194159 53.8099415,7.04132489 C53.9039996,6.94207803 53.9467533,6.81694069 53.9467533,6.66591286 L53.9467533,5.20741555 C53.9467533,4.86220908 53.8868982,4.5428931 53.7629124,4.24946761 C53.643202,3.95172703 53.4679119,3.69713726 53.2541433,3.47275306 C53.0360994,3.25699902 52.7795772,3.08439579 52.488852,2.95925845 C52.1938515,2.8341211 51.8860248,2.77370997 51.565372,2.77370997 L43.4036899,2.77370997 L43.4036899,1.74240566 C43.4036899,1.59137783 43.3566608,1.46624049 43.2626026,1.35836347 C43.1685445,1.25480153 43.0445587,1.19870548 42.8906454,1.19870548 L39.9748428,1.19870548 C39.8252048,1.19870548 39.6969437,1.25480153 39.6028855,1.35836347 C39.5088274,1.46624049 39.4617983,1.59137783 39.4617983,1.74240566 L39.4617983,2.77370997 L31.355696,2.77370997 Z M46.1271008,12.0985996 L46.1271008,13.1040134 C46.1271008,13.4449048 46.1142747,13.72107 46.0971732,13.9325089 C46.0757964,14.1439479 46.0159412,14.3208662 45.9090569,14.4762091 C45.8107234,14.6272369 45.643984,14.7696346 45.4173893,14.9034021 C45.1907947,15.0371696 44.8658665,15.2011427 44.4511556,15.3910063 L41.4455702,16.7632019 L38.4442602,15.3910063 C38.0466507,15.2011427 37.7345487,15.0414847 37.507954,14.9206624 C37.2813594,14.7955251 37.1103446,14.6574425 36.9991849,14.5020996 C36.8837499,14.3510718 36.815344,14.1655233 36.7982425,13.9454542 C36.7811411,13.7297001 36.7725903,13.4449048 36.7725903,13.1040134 L36.7725903,12.0985996 L46.1271008,12.0985996 Z M33.1983806,12.0985996 L33.1983806,13.1601095 C33.1983806,13.7728509 33.2454097,14.2863456 33.3394679,14.7049084 C33.433526,15.1234712 33.6173669,15.5031984 33.8909906,15.8354596 C34.1688897,16.1677208 34.5408469,16.4827217 35.0154131,16.7804623 C35.4857038,17.0738878 36.1099079,17.3932037 36.8837499,17.7384102 L38.1321581,18.3080009 L37.9012881,18.3943025 C37.2044027,18.6618375 36.5288942,18.8862217 35.8790379,19.0674551 C35.2249062,19.2486885 34.5493977,19.3393052 33.8525123,19.3393052 L29.8550409,19.3393052 C29.7011276,19.3393052 29.5814172,19.3910862 29.4873591,19.4989632 C29.3890256,19.6025251 29.3419965,19.7276625 29.3419965,19.8873205 L29.3419965,21.6867092 C29.3419965,21.837737 29.3890256,21.9628743 29.4873591,22.053491 C29.5814172,22.1527379 29.7011276,22.2002038 29.8550409,22.2002038 L33.8525123,22.2002038 C34.3997597,22.2002038 34.8743258,22.1829434 35.2847614,22.1441077 C35.6866462,22.105272 36.0928064,22.0362307 36.4861405,21.9283537 C36.8837499,21.8247917 37.3027362,21.6867092 37.7473748,21.5141059 C38.1920133,21.3415027 38.7264346,21.1128034 39.3506387,20.8280081 L41.4455702,19.8873205 L43.5447771,20.8280081 C44.1518797,21.0955431 44.6777502,21.3199273 45.1309395,21.5011607 C45.5841288,21.6823941 46.0159412,21.8247917 46.4221014,21.9283537 C46.8282616,22.0362307 47.2386971,22.105272 47.6576834,22.1441077 C48.0723944,22.1829434 48.5341344,22.2002038 49.0429035,22.2002038 L53.0403748,22.2002038 C53.1942882,22.2002038 53.3139985,22.1527379 53.4080567,22.053491 C53.5021148,21.9628743 53.5534193,21.837737 53.5534193,21.6867092 L53.5534193,19.8873205 C53.5534193,19.7276625 53.5021148,19.6025251 53.4080567,19.4989632 C53.3139985,19.3910862 53.1942882,19.3393052 53.0403748,19.3393052 L49.0429035,19.3393052 C48.3844964,19.3393052 47.7517416,19.2659488 47.144639,19.1106059 C46.5375364,18.9595781 45.8321003,18.7179336 45.0197799,18.3943025 L44.7931852,18.3080009 L46.0415934,17.7384102 C46.8325369,17.3759434 47.4695671,17.0393671 47.952684,16.7373115 C48.4358009,16.4309407 48.8077581,16.1202549 49.0728311,15.7923088 C49.337904,15.4686777 49.5131942,15.0975808 49.5987016,14.6790179 C49.6799337,14.25614 49.7269627,13.7512755 49.7269627,13.1601095 L49.7269627,12.0985996 L53.5234917,12.0985996 C53.6731296,12.0985996 53.7971154,12.0554488 53.8911735,11.960517 C53.9852317,11.8612702 54.0322608,11.7404479 54.0322608,11.585105 L54.0322608,9.75551072 C54.0322608,9.60448289 53.9852317,9.47934555 53.8911735,9.38009869 C53.7971154,9.28948199 53.6731296,9.23770102 53.5234917,9.23770102 L49.7269627,9.23770102 L49.7269627,7.55481951 C49.7269627,7.3994766 49.6756583,7.27002417 49.5816001,7.16646223 C49.487542,7.06290029 49.3678316,7.00680424 49.2139183,7.00680424 L46.6615221,7.00680424 C46.302391,7.00680424 46.1271008,7.18803764 46.1271008,7.55481951 L46.1271008,9.23770102 L36.7725903,9.23770102 L36.7725903,7.52461394 C36.7725903,7.37358611 36.7212859,7.24844877 36.6144016,7.14920191 C36.5117927,7.05427013 36.3835316,7.00680424 36.2338936,7.00680424 L33.6814975,7.00680424 C33.5275842,7.00680424 33.4078738,7.05427013 33.3138156,7.14920191 C33.2197575,7.24844877 33.168453,7.37358611 33.168453,7.52461394 L33.168453,9.23770102 L29.2308369,9.23770102 C29.0769235,9.23770102 28.9529378,9.28948199 28.8503289,9.38009869 C28.7434446,9.47934555 28.6921402,9.60448289 28.6921402,9.75551072 L28.6921402,11.585105 C28.6921402,11.7404479 28.7434446,11.8612702 28.8503289,11.960517 C28.9529378,12.0554488 29.0769235,12.0985996 29.2308369,12.0985996 L33.168453,12.0985996 L33.1983806,12.0985996 Z M71.1080903,6.37680245 L78.5899885,6.37680245 L78.5899885,4.54720818 L71.1080903,4.54720818 L71.1080903,6.37680245 Z M71.1080903,10.7005134 L78.5899885,10.7005134 L78.5899885,8.87091915 L71.1080903,8.87091915 L71.1080903,10.7005134 Z M79.8683243,13.2464111 C80.4155717,13.2464111 80.8773117,13.0565475 81.2449936,12.6725053 C81.6126754,12.2927782 81.792241,11.8267495 81.792241,11.2701041 L81.792241,3.91720638 C81.792241,3.38213636 81.6126754,2.9247378 81.2449936,2.54501069 C80.8773117,2.16528358 80.4155717,1.97542002 79.8683243,1.97542002 L69.8896097,1.97542002 C69.3423623,1.97542002 68.8806223,2.16528358 68.5001143,2.54501069 C68.1238817,2.9247378 67.93149,3.38213636 67.93149,3.91720638 L67.93149,20.5691032 C67.93149,21.1041732 68.1238817,21.5615718 68.5001143,21.9412989 C68.8806223,22.3253411 69.3423623,22.5152047 69.8896097,22.5152047 L73.6305588,22.5152047 C73.7801968,22.5152047 73.9127333,22.4634237 74.0153422,22.3598618 C74.1222264,22.2519847 74.1692555,22.1354776 74.1692555,22.0017101 L74.1692555,20.5691032 C74.1692555,20.4180754 74.1222264,20.2929381 74.0153422,20.1980063 C73.9127333,20.0987594 73.7801968,20.0556086 73.6305588,20.0556086 L71.1080903,20.0556086 L71.1080903,13.2464111 L79.8683243,13.2464111 Z M77.2304207,16.1634057 L76.3838974,14.735114 C76.2299841,14.5020996 76.1145491,14.3553869 76.0418678,14.2906606 C75.9649111,14.2216194 75.8323746,14.1914138 75.6442583,14.1914138 L73.0106301,14.1914138 C72.8182384,14.1914138 72.7241803,14.2647702 72.7241803,14.415798 C72.7241803,14.4762091 72.7626586,14.5840861 72.8396153,14.735114 L76.4095496,20.9143097 C76.7302024,21.5227361 77.1449133,21.9369838 77.6451317,22.157053 C78.14535,22.3771221 78.8294093,22.4849991 79.6973095,22.4849991 L81.6810814,22.4849991 C81.8136178,22.4849991 81.9333282,22.4332181 82.0359371,22.3296562 C82.1428214,22.2260943 82.1898504,22.105272 82.1898504,21.9715045 L82.1898504,20.5432127 C82.1898504,20.4094452 82.1428214,20.288623 82.0359371,20.185061 C81.9333282,20.077184 81.8136178,20.025403 81.6810814,20.025403 L80.3514412,20.025403 C80.026513,20.025403 79.8127445,20.021088 79.6973095,20.0124578 C79.5861498,20.0038276 79.4792656,19.9304713 79.3852074,19.7967038 C79.3296276,19.701772 79.2740478,19.6154704 79.2141926,19.5377989 C79.1586128,19.4644425 79.0260763,19.2659488 78.8208585,18.9423178 L78.5899885,18.5669057 L81.792241,14.8473061 C81.9675312,14.6574425 82.0487632,14.523675 82.0487632,14.4460036 C82.0487632,14.3122361 81.8991253,14.2475098 81.5998493,14.2475098 L79.1586128,14.2475098 C79.0260763,14.2475098 78.9191921,14.2734003 78.8336847,14.3338115 C78.7481772,14.3899075 78.6284669,14.5020996 78.4788289,14.6790179 L77.2004931,16.2195018 L77.2304207,16.1634057 Z M66.0631532,11.0716104 C66.2127911,11.0716104 66.3410522,11.0241445 66.4479365,10.9292127 C66.5505454,10.8342809 66.6018498,10.7091436 66.6018498,10.5538007 L66.6018498,8.81050802 C66.6018498,8.65948019 66.5505454,8.53434285 66.4479365,8.43941107 C66.3410522,8.34447929 66.2127911,8.2970134 66.0631532,8.2970134 L57.2772669,8.2970134 C57.1233536,8.2970134 57.0036432,8.34447929 56.9095851,8.43941107 C56.8155269,8.53434285 56.7642225,8.65948019 56.7642225,8.81050802 L56.7642225,10.5538007 C56.7642225,10.7091436 56.8155269,10.8342809 56.9095851,10.9292127 C57.0036432,11.0241445 57.1233536,11.0716104 57.2772669,11.0716104 L59.7398803,11.0716104 L59.7398803,13.3327127 L57.2772669,13.3327127 C57.1233536,13.3327127 57.0036432,13.3801786 56.9095851,13.4751104 C56.8155269,13.5700422 56.7642225,13.6951795 56.7642225,13.8462073 L56.7642225,15.5636095 C56.7642225,15.7189524 56.8155269,15.8397747 56.9095851,15.9390215 C57.0036432,16.0296382 57.1233536,16.0814192 57.2772669,16.0814192 L59.7398803,16.0814192 L59.7398803,20.5130072 C59.7398803,21.0437621 59.932272,21.5054758 60.3085046,21.8852029 C60.6890125,22.26493 61.1379264,22.4591086 61.6680724,22.4591086 L65.4389491,22.4591086 C65.5757609,22.4591086 65.6911959,22.4073276 65.7938048,22.2994506 C65.9006891,22.1958887 65.9477182,22.0750664 65.9477182,21.9412989 L65.9477182,20.5130072 C65.9477182,20.3619793 65.9006891,20.236842 65.7938048,20.1375951 C65.6911959,20.0469784 65.5757609,19.9995126 65.4389491,19.9995126 L63.0319155,19.9995126 L63.0319155,16.0814192 L66.0631532,16.0814192 C66.2127911,16.0814192 66.3410522,16.0296382 66.4479365,15.9390215 C66.5505454,15.8397747 66.6018498,15.7189524 66.6018498,15.5636095 L66.6018498,13.8462073 C66.6018498,13.6951795 66.5505454,13.5700422 66.4479365,13.4751104 C66.3410522,13.3801786 66.2127911,13.3327127 66.0631532,13.3327127 L63.0319155,13.3327127 L63.0319155,11.0716104 L66.0631532,11.0716104 Z M61.9545222,3.45980782 L62.6642337,2.19980422 C62.7198135,2.08761212 62.7454657,2.00131051 62.7454657,1.94521446 C62.7454657,1.81144695 62.6129292,1.74240566 62.3521316,1.74240566 L59.517561,1.74240566 C59.3636477,1.74240566 59.2482127,1.77261122 59.1755314,1.82870727 C59.0985747,1.88911841 59.0130673,2.00994067 58.9190092,2.19980422 L56.3409608,6.92481771 C56.2640041,7.05427013 56.2298012,7.14057175 56.2298012,7.17940748 C56.2298012,7.23550353 56.2554534,7.2872845 56.3110332,7.32180514 C56.3708884,7.36064087 56.482048,7.38221627 56.6530628,7.38221627 L59.2610388,7.38221627 C59.470532,7.38221627 59.6116192,7.35201071 59.6885758,7.29591466 C59.7612571,7.23550353 59.8681414,7.1060511 59.9964025,6.89461214 L60.394012,6.20851429 L66.0631532,6.20851429 C66.2127911,6.20851429 66.3410522,6.15241824 66.4479365,6.0488563 C66.5505454,5.94529436 66.6018498,5.8244721 66.6018498,5.6907046 L66.6018498,3.94741195 C66.6018498,3.79638412 66.5505454,3.67124678 66.4479365,3.576315 C66.3410522,3.48138322 66.2127911,3.43391733 66.0631532,3.43391733 L61.9545222,3.43391733 L61.9545222,3.45980782 Z M109.261496,4.89241465 C109.36838,4.79748287 109.415409,4.67234553 109.415409,4.5213177 L109.415409,2.43281859 C109.415409,2.29905108 109.36838,2.17822882 109.261496,2.07466688 C109.158887,1.96678986 109.034901,1.91500889 108.876713,1.91500889 L95.2169042,1.91500889 C95.0672662,1.91500889 94.9432804,1.96247478 94.8492223,2.05740656 C94.7551641,2.15665342 94.7081351,2.27747568 94.7081351,2.43281859 L94.7081351,4.5213177 C94.7081351,4.67234553 94.7551641,4.79748287 94.8492223,4.89241465 C94.9432804,4.98734643 95.0672662,5.03481231 95.2169042,5.03481231 L108.876713,5.03481231 C109.034901,5.03481231 109.158887,4.98734643 109.261496,4.89241465 L109.261496,4.89241465 Z M87.8205133,7.77920371 C87.9701513,7.77920371 88.0813109,7.76625847 88.1582676,7.74036798 C88.2352242,7.71016241 88.3121809,7.64975128 88.3848622,7.55481951 L92.6089282,2.23000979 C92.6474065,2.19117406 92.6773341,2.14370817 92.7072617,2.08761212 C92.7371893,2.03151607 92.7500154,1.98405018 92.7500154,1.94521446 C92.7500154,1.79418663 92.6388558,1.71651517 92.4122612,1.71651517 L89.1800811,1.71651517 C89.0304431,1.71651517 88.9150081,1.73809058 88.8380515,1.78555647 C88.7610948,1.83302235 88.6499352,1.96247478 88.5002972,2.17391374 L84.331811,7.35201071 C84.3104342,7.39084644 84.2933327,7.41673692 84.2762312,7.43831232 C84.2591297,7.45988773 84.2463036,7.48577821 84.2463036,7.52461394 C84.2463036,7.67564177 84.3702894,7.75331322 84.6182608,7.75331322 L87.7905857,7.75331322 L87.8205133,7.77920371 Z M87.055222,21.9715045 C87.055222,22.1225323 87.1065264,22.2476697 87.2091353,22.3426014 C87.3160196,22.4375332 87.4442807,22.4849991 87.5939187,22.4849991 L90.2574745,22.4849991 C90.3857356,22.4849991 90.5097213,22.4332181 90.6123302,22.3296562 C90.7149391,22.2260943 90.7662435,22.105272 90.7662435,21.9715045 L90.7662435,13.1040134 L89.2356609,13.1040134 L92.6089282,8.84071359 C92.6816095,8.76304213 92.7200878,8.68537068 92.7200878,8.6120143 C92.7200878,8.43941107 92.6217543,8.35310946 92.4122612,8.35310946 L89.1800811,8.35310946 C89.0304431,8.35310946 88.9150081,8.38331502 88.8380515,8.43941107 C88.7610948,8.49550712 88.6499352,8.62064447 88.5002972,8.81050802 L84.3617386,13.988605 C84.3018834,14.0490161 84.2762312,14.1137423 84.2762312,14.1914138 C84.2762312,14.3208662 84.400217,14.3899075 84.6439131,14.3899075 L87.055222,14.3899075 L87.055222,21.9715045 Z M103.211847,19.6241005 L97.5982855,19.6241005 C97.4486475,19.6241005 97.3246618,19.6758815 97.2306036,19.7664982 C97.1322701,19.8657451 97.0895164,19.9865673 97.0895164,20.1375951 L97.0895164,21.9715045 C97.0895164,22.1225323 97.1322701,22.2476697 97.2306036,22.3426014 C97.3246618,22.4375332 97.4486475,22.4849991 97.5982855,22.4849991 L105.024604,22.4849991 C105.576127,22.4849991 106.033591,22.2994506 106.414099,21.9283537 C106.790332,21.5572567 106.982724,21.0955431 106.982724,20.5432127 L106.982724,11.6714066 L109.701859,11.6714066 C109.855773,11.6714066 109.975483,11.6239407 110.073816,11.5290089 C110.163599,11.4340772 110.214904,11.3089398 110.214904,11.157912 L110.214904,9.06941287 C110.214904,8.93564536 110.163599,8.8148231 110.073816,8.71126116 C109.975483,8.60769922 109.855773,8.55591825 109.701859,8.55591825 L94.396033,8.55591825 C94.2463951,8.55591825 94.1224093,8.60769922 94.0283512,8.71126116 C93.9300177,8.8148231 93.887264,8.93564536 93.887264,9.06941287 L93.887264,11.157912 C93.887264,11.3089398 93.9300177,11.4340772 94.0283512,11.5290089 C94.1224093,11.6239407 94.2463951,11.6714066 94.396033,11.6714066 L103.211847,11.6714066 L103.211847,19.6241005 Z" id="Fill-1" fill="#F05A23" mask="url(#mask-2)"></path>
                </g>
            </g>
        </g>
    </g>
</svg>